<svg width="51" height="51" viewBox="0 0 51 51" fill="none" xmlns="http://www.w3.org/2000/svg">
<path d="M47.1195 41.0173H39.1647C34.1519 41.0173 30.0736 36.9389 30.0736 31.9262C30.0736 26.9134 34.1519 22.8351 39.1647 22.8351H47.1195C47.7476 22.8351 48.2559 22.3268 48.2559 21.6987V18.2895C48.2559 15.9065 46.4075 13.9685 44.0721 13.7805L37.5456 2.3811C36.9408 1.32682 35.9642 0.573282 34.7956 0.260384C33.6326 -0.0503836 32.4163 0.112831 31.3754 0.718705L9.00234 13.7439H5.07294C2.56603 13.7439 0.527344 15.7825 0.527344 18.2895V45.5629C0.527344 48.0698 2.56592 50.1085 5.07294 50.1085H43.7103C46.2172 50.1085 48.2559 48.0699 48.2559 45.5629V42.1537C48.2559 41.5256 47.7476 41.0173 47.1195 41.0173ZM38.955 9.41892L41.4311 13.7439H31.5263L38.955 9.41892ZM13.5195 13.7439L32.5195 2.68292C33.0333 2.38217 33.6336 2.30227 34.2074 2.45547C34.7878 2.6108 35.2717 2.98591 35.5725 3.51082L35.5748 3.51497L18.0059 13.7439H13.5195Z" fill="#4B2C10"/>
<path d="M47.1169 25.1084H39.1621C35.4022 25.1084 32.3438 28.1669 32.3438 31.9267C32.3438 35.6866 35.4022 38.7451 39.1621 38.7451H47.1169C48.9968 38.7451 50.526 37.2159 50.526 35.3359V28.5176C50.526 26.6376 48.9968 25.1084 47.1169 25.1084ZM39.1621 34.1995C37.9092 34.1995 36.8894 33.1796 36.8894 31.9267C36.8894 30.6739 37.9092 29.654 39.1621 29.654C40.415 29.654 41.4348 30.6739 41.4348 31.9267C41.4349 33.1796 40.4151 34.1995 39.1621 34.1995Z" fill="#4B2C10"/>
</svg>
